External Loads File
version=1
nRows=71
nColumns=13
Range=5.000000e-03-10 seconds
endheader
time 	forceRightX 	forceRightY 	forceRightZ 	pointRightX 	pointRightY 	pointRightZ 	forceLeftX 	forceLeftY 	forceLeftZ 	pointLeftX 	pointLeftY 	pointLeftZ 		
0.005000 17.883861 82.864238 -0.000000 0.306269 0.495082 -0.110638 12.252484 123.257985 -0.000000 0.257287 0.144148 -0.354203
0.010000 17.744338 83.070629 -0.000000 0.306396 0.495077 -0.110613 11.956268 123.881291 -0.000000 0.257173 0.144143 -0.354200
0.015000 17.588171 83.239437 -0.000000 0.306518 0.495069 -0.110609 11.684432 124.456285 -0.000000 0.257057 0.144144 -0.354199
0.020000 17.561235 83.321827 -0.000000 0.306407 0.495505 -0.110367 11.673265 124.914805 -0.000000 0.256246 0.146101 -0.356075
0.025000 17.151344 83.414762 -0.000000 0.306555 0.495798 -0.110405 11.167516 125.339772 -0.000000 0.256768 0.143971 -0.354242
0.030000 16.936339 83.387012 -0.000000 0.306694 0.495965 -0.110415 11.044376 125.676442 -0.000000 0.256623 0.144108 -0.354233
0.035000 16.694319 83.282483 -0.000000 0.306845 0.496026 -0.110426 10.969406 125.980698 -0.000000 0.256483 0.144117 -0.354226
0.040000 16.442499 83.114621 -0.000000 0.306994 0.496001 -0.110427 10.947296 126.294222 -0.000000 0.256326 0.144158 -0.354232
0.045000 16.206301 82.917903 -0.000000 0.307189 0.495908 -0.110441 10.979271 126.656870 -0.000000 0.256169 0.144192 -0.354233
0.050000 15.995974 82.745073 -0.000000 0.307368 0.495768 -0.110428 11.038485 127.091294 -0.000000 0.255994 0.144223 -0.354234
0.055000 15.830197 82.634357 -0.000000 0.307568 0.495600 -0.110431 11.121006 127.600773 -0.000000 0.255818 0.144255 -0.354239
0.060000 15.704566 82.587608 -0.000000 0.307761 0.495423 -0.110443 11.206639 128.161397 -0.000000 0.255633 0.144293 -0.354246
0.065000 15.601672 82.582582 -0.000000 0.307949 0.495256 -0.110453 11.272493 128.735500 -0.000000 0.255459 0.144301 -0.354231
0.070000 15.519935 82.602924 -0.000000 0.308154 0.495119 -0.110399 11.331548 129.305672 -0.000000 0.255272 0.144358 -0.354227
0.075000 15.437366 82.651969 -0.000000 0.308354 0.495031 -0.110417 11.370558 129.882957 -0.000000 0.255086 0.144382 -0.354196
0.080000 15.347736 82.724816 -0.000000 0.308542 0.495011 -0.110433 11.403324 130.485219 -0.000000 0.254890 0.144388 -0.354200
0.085000 15.247038 82.794369 -0.000000 0.308747 0.495080 -0.110436 11.447242 131.117508 -0.000000 0.254700 0.144394 -0.354189
0.090000 15.126071 82.825427 -0.000000 0.308929 0.495026 -0.110290 11.504759 131.758191 -0.000000 0.254511 0.144414 -0.354179
0.095000 15.002375 82.790584 -0.000000 0.309178 0.494876 -0.110295 11.604636 132.388555 -0.000000 0.254302 0.144426 -0.354187
0.100000 14.848806 82.682460 -0.000000 0.309402 0.494639 -0.110286 11.686521 133.028065 -0.000000 0.254093 0.144437 -0.354197
0.105000 14.666376 82.499506 -0.000000 0.309619 0.494599 -0.110299 11.728131 133.689653 -0.000000 0.253887 0.144462 -0.354209
0.110000 14.473583 82.265474 -0.000000 0.309816 0.494583 -0.110276 11.735472 134.364846 -0.000000 0.253691 0.144478 -0.354216
0.115000 14.312345 82.033723 -0.000000 0.310033 0.494569 -0.110281 11.742114 135.028492 -0.000000 0.253497 0.144487 -0.354214
0.120000 14.217348 81.867489 -0.000000 0.310266 0.494600 -0.110596 11.756069 135.641097 -0.000000 0.253298 0.144487 -0.354201
0.125000 14.213379 81.802615 -0.000000 0.310482 0.494594 -0.110607 11.773569 136.179023 -0.000000 0.253075 0.144509 -0.354194
0.130000 14.303511 81.828212 -0.000000 0.310697 0.494584 -0.110613 11.786715 136.654509 -0.000000 0.252859 0.144548 -0.354168
0.135000 14.464190 81.903971 -0.000000 0.310934 0.494563 -0.110617 11.792404 137.092260 -0.000000 0.252666 0.144578 -0.354157
0.140000 14.649175 81.998669 -0.000000 0.311159 0.494539 -0.110625 11.781736 137.510233 -0.000000 0.252470 0.144594 -0.354163
0.145000 14.817016 82.101292 -0.000000 0.311364 0.494521 -0.110620 11.752366 137.912873 -0.000000 0.252280 0.144621 -0.354151
0.150000 14.953578 82.204891 -0.000000 0.311565 0.494494 -0.110619 11.728375 138.299064 -0.000000 0.252080 0.144634 -0.354155
0.155000 15.060317 82.304266 -0.000000 0.311786 0.494470 -0.110597 11.726773 138.665005 -0.000000 0.251873 0.144645 -0.354169
0.160000 15.141852 82.402003 -0.000000 0.311992 0.494430 -0.110595 11.730784 138.992172 -0.000000 0.251659 0.144668 -0.354178
0.165000 15.212326 82.498736 -0.000000 0.312203 0.494399 -0.110598 11.725302 139.251084 -0.000000 0.251452 0.144684 -0.354166
0.170000 15.277002 82.586045 -0.000000 0.312413 0.494379 -0.110599 11.700635 139.410448 -0.000000 0.251242 0.144725 -0.354165
0.175000 15.324098 82.655989 -0.000000 0.312617 0.494341 -0.110607 11.647930 139.450357 -0.000000 0.251043 0.144750 -0.354154
0.180000 15.352764 82.715035 -0.000000 0.312831 0.494321 -0.110611 11.587357 139.375658 -0.000000 0.250840 0.144771 -0.354163
0.185000 15.360052 82.786853 -0.000000 0.313049 0.494285 -0.110624 11.525922 139.197930 -0.000000 0.250644 0.144844 -0.354157
0.190000 15.334007 82.890192 -0.000000 0.313237 0.494244 -0.110621 11.447670 138.924859 -0.000000 0.250436 0.144858 -0.354155
0.195000 15.269739 83.021787 -0.000000 0.313420 0.494202 -0.110633 11.351174 138.580612 -0.000000 0.250245 0.144876 -0.354140
0.200000 15.171515 83.167902 -0.000000 0.313627 0.494161 -0.110644 11.250861 138.202884 -0.000000 0.250054 0.144911 -0.354138
0.205000 15.029660 83.323790 -0.000000 0.313813 0.494096 -0.110641 11.131466 137.825565 -0.000000 0.249863 0.144952 -0.354139
0.210000 14.854506 83.484740 -0.000000 0.314004 0.494069 -0.110629 11.003331 137.454483 -0.000000 0.249678 0.144989 -0.354120
0.215000 14.655713 83.635943 -0.000000 0.314180 0.494008 -0.110611 10.873449 137.062251 -0.000000 0.249496 0.144994 -0.354115
0.220000 14.441075 83.746329 -0.000000 0.314365 0.493992 -0.110611 10.752359 136.625098 -0.000000 0.249332 0.145003 -0.354104
0.225000 14.219421 83.777438 -0.000000 0.314546 0.493951 -0.110613 10.661209 136.150586 -0.000000 0.249161 0.145024 -0.354093
0.230000 13.985564 83.705796 -0.000000 0.314721 0.493922 -0.110631 10.602195 135.661228 -0.000000 0.248990 0.145067 -0.354109
0.235000 13.739837 83.537973 -0.000000 0.314896 0.493907 -0.110634 10.581399 135.180569 -0.000000 0.248817 0.145084 -0.354109
0.240000 13.489153 83.315572 -0.000000 0.315043 0.493867 -0.110617 10.597436 134.733060 -0.000000 0.248645 0.145125 -0.354108
0.245000 13.246371 83.097603 -0.000000 0.315178 0.493864 -0.110620 10.638781 134.342445 -0.000000 0.248496 0.145154 -0.354103
0.250000 13.044805 82.923989 -0.000000 0.315321 0.493830 -0.110622 10.721609 134.030993 -0.000000 0.248342 0.145176 -0.354114
0.255000 12.886421 82.804430 -0.000000 0.315450 0.493807 -0.110629 10.814851 133.816780 -0.000000 0.248217 0.145204 -0.354112
0.260000 12.786018 82.721926 -0.000000 0.315568 0.493806 -0.110613 10.914969 133.714054 -0.000000 0.248098 0.145241 -0.354124
0.265000 12.744396 82.653142 -0.000000 0.315683 0.493781 -0.110621 11.010813 133.748687 -0.000000 0.247998 0.145238 -0.354105
0.270000 12.757401 82.571970 -0.000000 0.315790 0.493777 -0.110617 11.105863 133.937299 -0.000000 0.247901 0.145279 -0.354103
0.275000 12.797180 82.456519 -0.000000 0.315878 0.493773 -0.110618 11.191219 134.272848 -0.000000 0.247811 0.145286 -0.354109
0.280000 12.837330 82.294948 -0.000000 0.315964 0.493761 -0.110603 11.277601 134.717857 -0.000000 0.247735 0.145300 -0.354105
0.285000 12.840272 82.099847 -0.000000 0.316025 0.493737 -0.110609 11.350893 135.211610 -0.000000 0.247674 0.145301 -0.354105
0.290000 12.797322 81.908863 -0.000000 0.316081 0.493736 -0.110610 11.415317 135.694771 -0.000000 0.247619 0.145312 -0.354097
0.295000 12.710846 81.775852 -0.000000 0.316116 0.493717 -0.110615 11.460828 136.135657 -0.000000 0.247581 0.145329 -0.354085
0.300000 12.600854 81.744127 -0.000000 0.316131 0.493728 -0.110607 11.486365 136.529264 -0.000000 0.247559 0.145391 -0.354093
0.305000 12.492045 81.828832 -0.000000 0.316145 0.493725 -0.110623 11.489617 136.890753 -0.000000 0.247554 0.145339 -0.354093
0.310000 12.411554 82.015122 -0.000000 0.316131 0.493739 -0.110618 11.471490 137.247134 -0.000000 0.247551 0.145334 -0.354093
0.315000 12.381150 82.273911 -0.000000 0.316122 0.493735 -0.110618 11.435030 137.628236 -0.000000 0.247564 0.145341 -0.354088
0.320000 12.402945 82.581292 -0.000000 0.316097 0.493733 -0.110623 11.367316 138.043091 -0.000000 0.247599 0.145340 -0.354088
0.325000 12.477769 82.923447 -0.000000 0.316064 0.493751 -0.110621 11.269973 138.468464 -0.000000 0.247649 0.145338 -0.354098
0.330000 12.592412 83.297474 -0.000000 0.316003 0.493761 -0.110617 11.138476 138.874342 -0.000000 0.247699 0.145332 -0.354094
0.335000 12.731882 83.692808 -0.000000 0.315945 0.493767 -0.110625 10.976371 139.229363 -0.000000 0.247756 0.145309 -0.354101
0.340000 12.873048 84.067237 -0.000000 0.315873 0.493774 -0.110624 10.781556 139.513140 -0.000000 0.247834 0.145317 -0.354099
0.345000 13.007797 84.350031 -0.000000 0.315800 0.493777 -0.110629 10.589223 139.739079 -0.000000 0.247909 0.145288 -0.354099
0.350000 13.130291 84.486177 -0.000000 0.315713 0.493780 -0.110638 10.440193 139.947714 -0.000000 0.247978 0.145281 -0.354100
0.355000 13.239622 84.466515 -0.000000 0.315628 0.493804 -0.110646 10.362375 140.181326 -0.000000 0.248058 0.145276 -0.354103
